<?xml version="1.0" encoding="UTF-8"?>
<svg version="1.1" xmlns="http://www.w3.org/2000/svg" width="77" height="77">
<path d="M0 0 C5.43621378 4.65802367 9.14970644 9.23246268 9.8984375 16.51953125 C9.99941131 25.67785623 9.16247518 31.20002792 3.0625 38.0625 C-2.65548374 43.06573577 -6.31914057 44.41853348 -13.9375 44.375 C-14.61425781 44.37886719 -15.29101562 44.38273437 -15.98828125 44.38671875 C-19.07823767 44.38062416 -21.48429311 44.2344023 -24.4375 43.25 C-24.9634375 45.044375 -24.9634375 45.044375 -25.5 46.875 C-26.98250572 51.32251717 -28.87244945 55.48814911 -30.9375 59.6875 C-31.23406494 60.30254395 -31.53062988 60.91758789 -31.83618164 61.55126953 C-33.44200297 64.74869746 -34.3924519 66.21996793 -37.4375 68.25 C-44.30073268 68.90364121 -44.30073268 68.90364121 -47.9375 66.8125 C-50.21887929 62.91514372 -50.503615 59.63775223 -49.4375 55.25 C-47.51114152 52.14803907 -45.07903785 49.75303025 -42.4375 47.25 C-40.97434225 45.85922461 -39.51591934 44.46344933 -38.0625 43.0625 C-37.39476563 42.45019531 -36.72703125 41.83789062 -36.0390625 41.20703125 C-34.15198161 38.90111045 -33.79114268 37.17513014 -33.4375 34.25 C-34.12457031 34.27320313 -34.81164062 34.29640625 -35.51953125 34.3203125 C-36.42058594 34.33835938 -37.32164063 34.35640625 -38.25 34.375 C-39.14332031 34.39820313 -40.03664063 34.42140625 -40.95703125 34.4453125 C-43.4375 34.25 -43.4375 34.25 -46.4375 32.25 C-46.58984375 30.19140625 -46.58984375 30.19140625 -46.375 27.8125 C-46.2323412 25.41508334 -46.2323412 25.41508334 -46.4375 23.25 C-48.37759522 21.54467677 -48.37759522 21.54467677 -50.4375 20.25 C-50.4375 18.25 -50.4375 16.25 -50.4375 14.25 C-51.0975 13.425 -51.7575 12.6 -52.4375 11.75 C-54.4375 9.25 -54.4375 9.25 -54.9375 6.125 C-54.4375 3.25 -54.4375 3.25 -52.953125 1.6015625 C-49.25709759 -0.38419136 -45.82338846 -0.19488772 -41.6875 -0.25 C-35.26433547 -0.44072615 -29.21737633 -1.01283218 -22.9375 -2.375 C-14.5923168 -4.05238182 -7.25232876 -5.14981877 0 0 Z M-26.3125 8.6875 C-30.3842836 13.59759199 -30.87962506 17.26427218 -30.75390625 23.55859375 C-30.15727021 28.63368302 -27.53570164 31.25893998 -23.875 34.5625 C-19.61507353 37.51167987 -15.48199435 37.76787585 -10.4375 37.25 C-4.41842285 35.12561983 -1.62101417 31.47328283 1.875 26.3125 C3.29365709 22.05652873 2.95374533 18.37770711 1.5 14.1875 C-1.69044127 9.35037936 -6.02796029 5.45967711 -11.4375 3.25 C-17.42352583 3.25 -21.73405229 4.8057726 -26.3125 8.6875 Z " fill="#625AE7" transform="translate(60.4375,5.75)"/>
</svg>
