<?xml version="1.0" encoding="UTF-8"?>
<svg version="1.1" xmlns="http://www.w3.org/2000/svg" width="360" height="200">
<path d="M0 0 C6.00758534 2.68211955 10.35233103 6.16379258 13.21484375 12.15625 C15.69185593 19.86369133 15.92217278 26.85207526 12.21484375 34.15625 C8.81125573 39.17611475 5.08464345 43.23727702 -0.78515625 45.15625 C-7.27302597 46.31796263 -12.59477534 46.49483834 -18.78515625 44.15625 C-19.03394531 44.80335937 -19.28273438 45.45046875 -19.5390625 46.1171875 C-21.15545944 50.05937188 -22.9263453 53.91835747 -24.72265625 57.78125 C-25.07005859 58.544375 -25.41746094 59.3075 -25.77539062 60.09375 C-26.11763672 60.82851562 -26.45988281 61.56328125 -26.8125 62.3203125 C-27.11921631 62.98498535 -27.42593262 63.6496582 -27.74194336 64.33447266 C-28.90075151 66.35811562 -29.95801812 67.70212623 -31.78515625 69.15625 C-34.88078556 69.54934578 -36.8285223 69.77963668 -39.78515625 69.15625 C-42.34765625 67.09375 -42.34765625 67.09375 -43.78515625 64.15625 C-43.72387732 59.84119204 -43.13971715 57.14209737 -40.203125 54.0234375 C-39.14119701 53.01019766 -38.06383256 52.0129222 -36.97265625 51.03125 C-31.48049692 45.95759609 -31.48049692 45.95759609 -26.78515625 40.15625 C-26.91665451 37.40500747 -26.91665451 37.40500747 -27.78515625 35.15625 C-28.81576172 35.20845703 -28.81576172 35.20845703 -29.8671875 35.26171875 C-30.76824219 35.28878906 -31.66929688 35.31585938 -32.59765625 35.34375 C-33.93763672 35.39595703 -33.93763672 35.39595703 -35.3046875 35.44921875 C-37.78515625 35.15625 -37.78515625 35.15625 -39.625 33.83984375 C-40.78515625 32.15625 -40.78515625 32.15625 -40.53515625 29.03125 C-39.78515625 26.15625 -39.78515625 26.15625 -38.78515625 25.15625 C-39.58953125 24.74375 -40.39390625 24.33125 -41.22265625 23.90625 C-43.78515625 22.15625 -43.78515625 22.15625 -44.72265625 20.15625 C-44.78515625 18.15625 -44.78515625 18.15625 -42.78515625 15.15625 C-43.42453125 14.8675 -44.06390625 14.57875 -44.72265625 14.28125 C-46.78515625 13.15625 -46.78515625 13.15625 -47.78515625 11.15625 C-47.97265625 8.15625 -47.97265625 8.15625 -47.78515625 5.15625 C-45.2126521 2.58374585 -44.16021078 2.89401243 -40.5859375 2.84765625 C-39.01875977 2.80995117 -39.01875977 2.80995117 -37.41992188 2.77148438 C-35.2246635 2.736639 -33.02934593 2.7053242 -30.83398438 2.67773438 C-19.85911778 2.4018487 -11.05975965 -3.35050222 0 0 Z M-21.66015625 11.03125 C-25.34255824 16.44654705 -26.32539803 20.07107618 -25.52734375 26.58203125 C-24.05333096 31.69452824 -20.33233276 35.5867776 -15.8515625 38.34765625 C-11.22915498 40.15642441 -6.13378513 40.01794831 -1.49609375 38.31640625 C3.68007158 35.43752778 6.53348461 31.8308371 8.21484375 26.15625 C8.99771024 21.88310375 8.54276285 18.26433799 6.52734375 14.40625 C3.19033857 9.71640489 -0.23846502 6.82025737 -5.78515625 5.15625 C-11.7003026 4.3569059 -17.74489379 6.5368067 -21.66015625 11.03125 Z " fill="#4f46e5" transform="translate(114.78515625,64.84375)"/>
<path d="M0 0 C5.5020003 3.28226404 9.40524772 7.4045912 11.91796875 13.34375 C13.07282774 20.27290396 12.61020045 27.18970398 8.54296875 33.09375 C3.91723866 38.13515629 -0.50355299 41.58111172 -7.45703125 42.09375 C-14.26712531 42.27327796 -19.17361278 40.35882251 -24.45703125 36.09375 C-29.9565258 30.30480837 -30.93354163 24.87741421 -30.76171875 17.09765625 C-30.21164274 11.67447095 -28.5370788 8.00638929 -24.515625 4.30859375 C-17.41337123 -1.22410118 -8.76248414 -3.23194964 0 0 Z M-21.33203125 10.78125 C-23.83520339 14.68325363 -24.75197459 17.48190869 -24.45703125 22.09375 C-22.76270474 27.97405966 -20.2966693 30.66567304 -15.45703125 34.09375 C-11.38973215 35.44951637 -7.72450274 35.87955432 -3.5859375 34.4453125 C1.07990065 32.09734233 3.8433193 29.05189899 5.54296875 24.09375 C6.34203736 19.83479668 5.87830218 16.73957736 3.85546875 12.84375 C0.32515536 8.64553949 -1.90313708 6.46969214 -7.33203125 5.15625 C-13.19412096 4.71466132 -17.09077962 6.81660174 -21.33203125 10.78125 Z " fill="#d1d5db" transform="translate(232.45703125,78.90625)"/>
<path d="M0 0 C9.57 0 19.14 0 29 0 C29.33 1.65 29.66 3.3 30 5 C29 6 29 6 26.77514648 6.11352539 C25.81680908 6.10828857 24.85847168 6.10305176 23.87109375 6.09765625 C22.31938477 6.09282227 22.31938477 6.09282227 20.73632812 6.08789062 C19.64771484 6.07951172 18.55910156 6.07113281 17.4375 6.0625 C15.7987793 6.05573242 15.7987793 6.05573242 14.12695312 6.04882812 C11.41794568 6.0369984 8.7089662 6.01906231 6 6 C6 9.96 6 13.92 6 18 C11.61 18 17.22 18 23 18 C23.33 19.65 23.66 21.3 24 23 C23 24 23 24 19.18359375 24.09765625 C17.60153318 24.09098089 16.01948841 24.07901875 14.4375 24.0625 C13.63119141 24.05798828 12.82488281 24.05347656 11.99414062 24.04882812 C9.99606244 24.03700518 7.99802217 24.01906914 6 24 C6 27.96 6 31.92 6 36 C8.47306641 35.98259766 8.47306641 35.98259766 10.99609375 35.96484375 C13.14322804 35.95546762 15.29036355 35.94636723 17.4375 35.9375 C18.52611328 35.92912109 19.61472656 35.92074219 20.73632812 35.91210938 C21.77080078 35.90888672 22.80527344 35.90566406 23.87109375 35.90234375 C24.82943115 35.89710693 25.78776855 35.89187012 26.77514648 35.88647461 C29 36 29 36 30 37 C30.04063832 38.66617115 30.042721 40.33388095 30 42 C27.30734639 43.3463268 25.19885751 43.12962636 22.1875 43.1328125 C21.02992188 43.13410156 19.87234375 43.13539062 18.6796875 43.13671875 C17.46539062 43.13285156 16.25109375 43.12898438 15 43.125 C13.78570312 43.12886719 12.57140625 43.13273437 11.3203125 43.13671875 C9.58394531 43.13478516 9.58394531 43.13478516 7.8125 43.1328125 C6.21341797 43.13112061 6.21341797 43.13112061 4.58203125 43.12939453 C2 43 2 43 0 42 C0 28.14 0 14.28 0 0 Z " fill="#d1d5db" transform="translate(172,78)"/>
<path d="M0 0 C2.1796875 -0.40625 2.1796875 -0.40625 5 0 C6.94063915 2.14709013 8.5135239 4.12960243 10.125 6.5 C11.68458441 8.75273304 13.27036265 10.8658034 15 13 C15.99 13 16.98 13 18 13 C20.20039578 10.28493538 22.18939595 7.50848791 24.15234375 4.62109375 C25.4296875 2.84375 25.4296875 2.84375 28 0 C30.8203125 -0.40625 30.8203125 -0.40625 33 0 C33.66235352 1.76782227 33.66235352 1.76782227 34 4 C32.98022461 5.84350586 32.98022461 5.84350586 31.40234375 7.71484375 C30.84869141 8.40126953 30.29503906 9.08769531 29.72460938 9.79492188 C28.53351669 11.22293136 27.3381959 12.64742483 26.13867188 14.06835938 C24.58982058 15.9967425 23.18658534 17.82948798 22 20 C22.59582997 25.0721936 27.39333058 29.43814514 30.63085938 33.27148438 C34.04209882 37.49233781 34.04209882 37.49233781 33.80078125 40.40234375 C33.40439453 41.19318359 33.40439453 41.19318359 33 42 C31.02 42.495 31.02 42.495 29 43 C24.66656144 38.19200621 20.6679661 33.33522342 17 28 C13.05108443 31.70958735 9.90343434 35.70514009 6.74609375 40.109375 C4.81026673 42.20543826 3.81387837 42.74680849 1 43 C0.34 42.67 -0.32 42.34 -1 42 C-1.43273248 39.38868328 -1.3611967 37.60234197 0.01513672 35.30712891 C1.43989018 33.42883492 2.91772787 31.61475765 4.4375 29.8125 C8.06066402 25.63545882 8.06066402 25.63545882 11 21 C10.63124756 20.54149658 10.26249512 20.08299316 9.88256836 19.6105957 C8.21830736 17.52335589 6.57794434 15.41850061 4.9375 13.3125 C4.35677734 12.59126953 3.77605469 11.87003906 3.17773438 11.12695312 C2.36079102 10.06831055 2.36079102 10.06831055 1.52734375 8.98828125 C1.01937256 8.34415283 0.51140137 7.70002441 -0.01196289 7.03637695 C-1.31680014 4.3470645 -0.82098086 2.80839426 0 0 Z " fill="#d1d5db" transform="translate(135,78)"/>
<path d="M0 0 C2.19921875 -0.4375 2.19921875 -0.4375 5 0 C6.87428786 2.3361553 8.32638858 4.43825053 9.8125 7 C10.21919922 7.66773437 10.62589844 8.33546875 11.04492188 9.0234375 C12.04616957 10.67255135 13.02525841 12.3350819 14 14 C15.29240512 12.22970554 16.58389793 10.45874502 17.875 8.6875 C18.59429687 7.70136719 19.31359375 6.71523437 20.0546875 5.69921875 C21.4055935 3.82476885 22.71835329 1.92247007 24 0 C26.625 -0.1875 26.625 -0.1875 29 0 C29.8359375 2.05859375 29.8359375 2.05859375 30 5 C28.2827222 7.48149593 26.53399716 9.74037687 24.625 12.0625 C17.63444908 21.1935474 17.50831215 29.83982928 18 41 C16.35 41.66 14.7 42.32 13 43 C11 41 11 41 10.97265625 37.24609375 C10.99054199 36.48184082 11.00842773 35.71758789 11.02685547 34.93017578 C11.17150309 24.81474973 8.8959409 18.56446452 2.77368164 10.52124023 C-1.0275026 5.49897581 -1.0275026 5.49897581 -0.8359375 2.0234375 C-0.56007813 1.35570313 -0.28421875 0.68796875 0 0 Z " fill="#d1d5db" transform="translate(272,78)"/>
<path d="M0 0 C1.65 0 3.3 0 5 0 C6 1 6 1 6.11352539 4.32641602 C6.11336629 5.80225556 6.10767314 7.27810069 6.09765625 8.75390625 C6.0962413 9.52935287 6.09482635 10.3047995 6.09336853 11.10374451 C6.08775345 13.59003494 6.07519846 16.0762366 6.0625 18.5625 C6.05748694 20.24413933 6.0529237 21.92578006 6.04882812 23.60742188 C6.03777913 27.73831566 6.02050445 31.86914276 6 36 C6.63091553 35.99476318 7.26183105 35.98952637 7.91186523 35.98413086 C10.75373347 35.96342174 13.59558588 35.95035934 16.4375 35.9375 C17.92733398 35.92493164 17.92733398 35.92493164 19.44726562 35.91210938 C20.39150391 35.90888672 21.33574219 35.90566406 22.30859375 35.90234375 C23.18314209 35.89710693 24.05769043 35.89187012 24.95874023 35.88647461 C27 36 27 36 28 37 C28.04063832 38.66617115 28.042721 40.33388095 28 42 C25.41276011 43.29361994 23.51886997 43.12948949 20.625 43.1328125 C19.55765625 43.13410156 18.4903125 43.13539062 17.390625 43.13671875 C16.27171875 43.13285156 15.1528125 43.12898438 14 43.125 C12.88109375 43.12886719 11.7621875 43.13273437 10.609375 43.13671875 C9.00835937 43.13478516 9.00835937 43.13478516 7.375 43.1328125 C6.39273438 43.13168457 5.41046875 43.13055664 4.3984375 43.12939453 C2 43 2 43 0 42 C0 28.14 0 14.28 0 0 Z " fill="#d1d5db" transform="translate(248,78)"/>
<path d="M0 0 C3.42559084 1.20358597 5.53258609 2.35892646 8 5 C7.46890625 5.99 6.9378125 6.98 6.390625 8 C5.67685635 9.33321184 4.9633302 10.66655352 4.25 12 C3.88310059 12.68537842 3.51620117 13.37075684 3.13818359 14.0769043 C1.24255766 17.6294134 -0.61440217 21.19050676 -2.375 24.8125 C-4 28 -4 28 -6 30 C-9.00887945 30.3397122 -11.09715473 30.54965117 -14 30 C-16.5625 27.9375 -16.5625 27.9375 -18 25 C-17.93414683 20.71447822 -17.37153621 18.00413174 -14.453125 14.90234375 C-13.40030505 13.89821673 -12.33205048 12.91005728 -11.25 11.9375 C-10.19028241 10.94920945 -9.13297158 9.95833168 -8.078125 8.96484375 C-7.30758789 8.24337158 -7.30758789 8.24337158 -6.52148438 7.50732422 C-4.14882331 5.15674505 -2.08916151 2.60371425 0 0 Z " fill="#4338ca" transform="translate(89,104)"/>
</svg>
