<?xml version="1.0" encoding="UTF-8"?>
<svg version="1.1" xmlns="http://www.w3.org/2000/svg" width="376" height="376">
<path d="M0 0 C124.08 0 248.16 0 376 0 C376 124.08 376 248.16 376 376 C251.92 376 127.84 376 0 376 C0 251.92 0 127.84 0 0 Z " fill="#070707" transform="translate(0,0)"/>
<path d="M0 0 C124.08 0 248.16 0 376 0 C376 124.08 376 248.16 376 376 C251.92 376 127.84 376 0 376 C0 251.92 0 127.84 0 0 Z M148 23 C147.23413574 23.18723633 146.46827148 23.37447266 145.67919922 23.56738281 C120.11806681 30.00351922 95.50348613 42.9360789 76.2265625 60.92578125 C74.20047504 62.81324168 72.12103095 64.59620711 70 66.375 C44.85013808 88.50687849 29.84739378 119.96124874 22 152 C21.82065918 152.70286133 21.64131836 153.40572266 21.45654297 154.12988281 C16.15164032 175.73932736 16.99371263 202.43759378 22 224 C22.19335938 224.83708496 22.38671875 225.67416992 22.5859375 226.53662109 C31.02207837 261.615605 51.22082755 296.64429838 80 319 C80.75821045 319.59409668 80.75821045 319.59409668 81.53173828 320.20019531 C90.84680219 327.44201704 100.5174157 333.59157148 111 339 C111.9276416 339.47928955 111.9276416 339.47928955 112.87402344 339.96826172 C129.14766368 348.24350727 146.06338501 352.9013222 164 356 C165.41732422 356.26586914 165.41732422 356.26586914 166.86328125 356.53710938 C208.12401359 362.62602193 254.16672428 350.1475453 287.4765625 325.58544922 C291.77132626 322.29942472 295.82168692 318.76209022 299.7734375 315.07421875 C301.79952496 313.18675832 303.87896905 311.40379289 306 309.625 C326.29119459 291.72338721 340.61011523 266.52185337 349 241 C349.22526367 240.33323242 349.45052734 239.66646484 349.68261719 238.97949219 C359.2592671 210.30418809 360.60723095 177.30192662 353 148 C352.78037598 147.14277344 352.56075195 146.28554687 352.33447266 145.40234375 C343.43125865 111.57895184 323.90507293 78.67669989 296 57 C295.49452637 56.60393555 294.98905273 56.20787109 294.46826172 55.79980469 C285.15319781 48.55798296 275.4825843 42.40842852 265 37 C264.38157227 36.68047363 263.76314453 36.36094727 263.12597656 36.03173828 C228.29868598 18.32184809 185.89688037 13.58910769 148 23 Z " fill="#FEFEFE" transform="translate(0,0)"/>
<path d="M0 0 C4.11256631 1.26589932 7.92861814 2.84564808 11.81298828 4.66601562 C22.88608689 9.83791165 34.30035481 13.52074759 46 17 C45.53105503 22.40084761 44.9175955 27.75778932 44.09765625 33.1171875 C43.92943359 34.22191406 43.76121094 35.32664063 43.58789062 36.46484375 C43.24830081 38.66902154 42.90238187 40.87223766 42.54882812 43.07421875 C40.54601023 56.40095377 39.97088363 69.40762918 39 83 C16.56 83 -5.88 83 -29 83 C-28.34996597 73.24948955 -27.65902401 64.60111671 -25.4375 55.25 C-25.17428955 54.13383301 -24.9110791 53.01766602 -24.63989258 51.86767578 C-19.98468169 33.0553929 -11.43513572 15.62067576 0 0 Z " fill="#FDFDFD" transform="translate(63,97)"/>
<path d="M0 0 C22.44 0 44.88 0 68 0 C66.82686552 16.42388268 66.82686552 16.42388268 65.3125 23.25 C65.13879883 24.04446533 64.96509766 24.83893066 64.78613281 25.6574707 C59.97554754 46.75693113 50.95376516 65.06935226 39 83 C33.85883821 81.39595752 28.996648 79.3235855 24.0625 77.1875 C15.82348436 73.66505124 7.54418074 70.69157342 -1 68 C-3.00114057 67.33676484 -5.00151685 66.67120009 -7 66 C-6.60195827 58.99995571 -5.75828446 52.15142683 -4.5625 45.25 C-1.96722016 30.13640442 -0.77162468 15.4324936 0 0 Z " fill="#FDFDFD" transform="translate(274,196)"/>
<path d="M0 0 C22.44 0 44.88 0 68 0 C68.4125 5.445 68.825 10.89 69.25 16.5 C70.35245505 30.38225492 71.95509766 44.01455941 74.68041992 57.68701172 C75.06574598 60.47584217 75.0498195 63.18835932 75 66 C73.90667358 66.34611328 73.90667358 66.34611328 72.79125977 66.69921875 C59.46852589 70.94671239 46.4585243 75.24278375 33.96484375 81.56640625 C31 83 31 83 29 83 C27.51638078 81.03004917 26.18544491 79.08236978 24.875 77 C24.47756592 76.37279053 24.08013184 75.74558105 23.6706543 75.09936523 C19.25054821 67.98593532 15.51477844 60.59443199 12 53 C11.4534375 51.84371094 10.906875 50.68742187 10.34375 49.49609375 C6.97517499 41.80508704 4.93137602 34.13288959 3.1875 25.9375 C2.98036377 24.96876953 2.77322754 24.00003906 2.55981445 23.00195312 C1.01255937 15.22460017 0.57568344 8.05956817 0 0 Z " fill="#FDFDFD" transform="translate(34,196)"/>
<path d="M0 0 C1.48361922 1.96995083 2.81455509 3.91763022 4.125 6 C4.52243408 6.62720947 4.91986816 7.25441895 5.3293457 7.90063477 C19.8644967 31.29255702 28 55.260615 28 83 C5.89 83 -16.22 83 -39 83 C-39.33 75.74 -39.66 68.48 -40 61 C-40.38911456 57.18152036 -40.79313362 53.46600676 -41.375 49.6875 C-41.56799683 48.34667358 -41.56799683 48.34667358 -41.76489258 46.97875977 C-42.72869824 40.41659169 -43.83530422 33.87780599 -45.08544922 27.36401367 C-45.74857781 23.84498159 -46.05383194 20.57390613 -46 17 C-45.36723145 16.79955078 -44.73446289 16.59910156 -44.08251953 16.39257812 C-31.85428749 12.4912214 -12.37524517 0 0 0 Z " fill="#FDFDFD" transform="translate(313,97)"/>
<path d="M0 0 C0.83917969 0.11275269 0.83917969 0.11275269 1.6953125 0.2277832 C19.76576955 2.63003548 37.84565751 4.356719 56 6 C56 24.48 56 42.96 56 62 C35.21 62 14.42 62 -7 62 C-7 38.92942005 -7 38.92942005 -5.1875 28.1875 C-4.91728027 26.47856567 -4.91728027 26.47856567 -4.64160156 24.73510742 C-3.30855569 16.44721911 -1.81241279 8.19704874 0 0 Z " fill="#FDFDFD" transform="translate(124,118)"/>
<path d="M0 0 C20.79 0 41.58 0 63 0 C63 22.99143607 63 22.99143607 61.72265625 30.125 C61.59185165 30.93066406 61.46104706 31.73632812 61.32627869 32.56640625 C60.91983226 35.04701893 60.49166033 37.52322953 60.0625 40 C59.78047261 41.70549357 59.49986979 43.41122333 59.22070312 45.1171875 C57.07988767 58.06708366 57.07988767 58.06708366 56 62 C55.05382812 61.87882812 54.10765625 61.75765625 53.1328125 61.6328125 C35.44969956 59.38445977 17.76146339 57.61467849 0 56 C0 37.52 0 19.04 0 0 Z " fill="#FDFDFD" transform="translate(196,196)"/>
<path d="M0 0 C5.1093872 24.74695194 5.1093872 24.74695194 6.3125 36.625 C6.38839355 37.34268555 6.46428711 38.06037109 6.54248047 38.79980469 C7.24131202 46.56885966 7 54.12633765 7 62 C-13.79 62 -34.58 62 -56 62 C-56 43.52 -56 25.04 -56 6 C-43.13 5.01 -43.13 5.01 -30 4 C-25.16779126 3.3603743 -20.41621267 2.70531285 -15.625 1.875 C-13.47177396 1.51570429 -11.31814381 1.15881953 -9.1640625 0.8046875 C-7.80982178 0.57241455 -7.80982178 0.57241455 -6.42822266 0.33544922 C-4 0 -4 0 0 0 Z " fill="#FDFDFD" transform="translate(252,118)"/>
<path d="M0 0 C20.79 0 41.58 0 63 0 C63 18.48 63 36.96 63 56 C55.08 56.66 47.16 57.32 39 58 C34.83765479 58.48142233 30.70618978 58.97232866 26.5625 59.5625 C24.73057828 59.81459932 22.89854826 60.06591296 21.06640625 60.31640625 C20.22352051 60.43258301 19.38063477 60.54875977 18.51220703 60.66845703 C14.68098193 61.17407449 10.84249972 61.58956005 7 62 C5.62454297 54.67403633 4.30005923 47.33969511 3 40 C2.76047607 38.67210449 2.76047607 38.67210449 2.51611328 37.31738281 C2.2935083 36.06586426 2.2935083 36.06586426 2.06640625 34.7890625 C1.87413452 33.71712646 1.87413452 33.71712646 1.67797852 32.62353516 C-0.10840369 21.15115021 0 12.09264078 0 0 Z " fill="#FDFDFD" transform="translate(117,196)"/>
<path d="M0 0 C0 24.42 0 48.84 0 74 C-9.49543079 74 -18.39778261 73.73912441 -27.75 72.625 C-28.89082031 72.49867187 -30.03164062 72.37234375 -31.20703125 72.2421875 C-37.88455229 71.47553755 -44.43629268 70.45012139 -51 69 C-49.87383721 61.89709013 -47.91875382 55.75332451 -44.875 49.25 C-44.47539062 48.38383057 -44.07578125 47.51766113 -43.6640625 46.62524414 C-36.18643463 30.65098413 -21.05204387 0 0 0 Z " fill="#FBFBFB" transform="translate(180,35)"/>
<path d="M0 0 C0 24.42 0 48.84 0 74 C-13.15237422 71.36952516 -23.58902649 60.86574345 -30.99609375 50.13671875 C-37.97809261 39.20778097 -43.50351422 28.16357051 -48 16 C-48.3403125 15.13890625 -48.680625 14.2778125 -49.03125 13.390625 C-50.19593321 10.43578056 -51 8.20641388 -51 5 C-34.18119284 1.28007559 -17.19393454 0 0 0 Z " fill="#FCFCFC" transform="translate(180,267)"/>
<path d="M0 0 C19.66454579 6.5548486 31.32088963 21.72625742 40.42578125 39.69921875 C51 61.22247664 51 61.22247664 51 69 C46.952766 69.56237637 42.90411406 70.11287828 38.85400391 70.65405273 C37.4867373 70.8382482 36.11984679 71.02526529 34.75341797 71.21557617 C23.1231189 72.83209291 11.80238889 73.40988056 0 74 C0 49.58 0 25.16 0 0 Z " fill="#FCFCFC" transform="translate(196,35)"/>
<path d="M0 0 C12.71536358 0 24.339027 0.19101494 36.75 2 C38.15217369 2.19394187 39.5545184 2.38665122 40.95703125 2.578125 C44.3067586 3.03805197 47.65393546 3.51405165 51 4 C47.51291441 27.41478493 32.29973069 53.15212042 13.4296875 67.41015625 C9.49713966 69.98338289 4.8301535 73 0 73 C0 48.91 0 24.82 0 0 Z " fill="#FDFDFD" transform="translate(196,268)"/>
<path d="M0 0 C0.25579834 0.69859131 0.51159668 1.39718262 0.77514648 2.11694336 C8.59722683 23.33536001 16.90936501 41.28537767 31 59 C29 60 29 60 25.8671875 59.06640625 C24.53234008 58.57617543 23.20185816 58.07395999 21.875 57.5625 C21.16577393 57.29171631 20.45654785 57.02093262 19.72583008 56.74194336 C-3.51964451 47.64009307 -22.81034967 33.94925845 -40 16 C-37.28067133 12.65157291 -33.61705802 11.27038088 -29.75 9.625 C-28.6966748 9.17036377 -28.6966748 9.17036377 -27.62207031 8.70654297 C-7.06635884 0 -7.06635884 0 0 0 Z " fill="#F9F9F9" transform="translate(114,276)"/>
<path d="M0 0 C-0.60585937 0.72960938 -1.21171875 1.45921875 -1.8359375 2.2109375 C-15.42649486 18.97865055 -24.43128131 38.53277859 -31 59 C-44.88409625 56.08912741 -58.97688868 51.73430608 -71 44 C-69.03359439 41.63022914 -67.04058531 39.30526374 -65 37 C-64.10667969 35.98679687 -64.10667969 35.98679687 -63.1953125 34.953125 C-54.06571184 25.21962079 -14.42676632 -7.21338316 0 0 Z " fill="#FAFAFA" transform="translate(145,41)"/>
<path d="M0 0 C7.8368157 1.8077092 15.31907021 4.02122822 22.8125 6.9375 C24.14571289 7.43926758 24.14571289 7.43926758 25.50585938 7.95117188 C30.63288943 9.92077114 35.3100639 12.13997075 40 15 C21.90736058 36.7111673 -3.18124722 53.68473263 -31 60 C-27.96015024 55.39011794 -24.8806362 50.8355958 -21.625 46.375 C-11.70210423 32.08776715 -5.97317324 16.22527705 0 0 Z " fill="#FAFAFA" transform="translate(262,276)"/>
<path d="M0 0 C27.88599354 5.89659775 51.69306105 23.83989026 71 44 C68.87768059 46.33541693 67.01199361 47.63830695 64.11328125 48.8671875 C63.34685303 49.19332031 62.5804248 49.51945312 61.79077148 49.85546875 C60.97294189 50.19191406 60.1551123 50.52835938 59.3125 50.875 C58.47340088 51.22433594 57.63430176 51.57367188 56.76977539 51.93359375 C37.03349681 60 37.03349681 60 31 60 C30.5875 58.82566406 30.175 57.65132812 29.75 56.44140625 C22.74513746 36.78624733 14.4792737 18.84645594 1.21484375 2.57421875 C0 1 0 1 0 0 Z " fill="#FBFBFB" transform="translate(231,40)"/>
</svg>
